PathFileType	4	(X/Y/Z)	D:\TRACE\v60_Jaco2_6-2-23\BothDRS_Motion3_2-v60.trc
DataRate	CameraRate	NumFrames	NumMarkers	Units	OrigDataRate	OrigDataStartFrame	OrigNumFrames
100.00	100.00	      21	9	mm	100.00	4376	      7000
Frame#	Time	front left toe			Front right toe			aft left toe			aft right toe			Arm			FL body			FR body			AL Body			AR Body			
		X1	Y1	Z1	X2	Y2	Z2	X3	Y3	Z3	X4	Y4	Z4	X5	Y5	Z5	X6	Y6	Z6	X7	Y7	Z7	X8	Y8	Z8	X9	Y9	Z9	

4376	43.750	-130.80051	3.77553	-230.80109	267.18573	90.49371	-238.96979	-103.46239	130.69705	383.68008	246.78427	26.32387	381.27863	85.29404	1071.04626	-558.85736	-7.83593	490.08005	-407.13031	150.53247	490.42331	-408.27005	7.21602	601.95294	530.84821	157.69650	593.12689	529.26550	
4377	43.760	-131.12834	4.12566	-230.37285	265.68073	80.75800	-239.81047	-104.28612	120.68546	384.79526	246.66428	25.37808	381.21558	85.14688	1071.90015	-557.67291	-8.10409	490.52521	-406.60739	150.23131	490.88702	-407.81409	7.78383	601.24731	531.29218	158.89296	592.20544	529.83240	
4378	43.770	-131.57735	4.53643	-230.01471	263.99829	70.03985	-240.11232	-104.97842	109.62734	385.67358	246.73134	25.15782	382.07785	85.48602	1072.54358	-556.33160	-8.12570	490.93024	-405.94205	149.99452	491.14044	-407.66995	9.12575	600.29980	531.86847	160.00940	591.35046	530.41418	
4379	43.780	-131.78723	4.87740	-229.76126	262.92957	59.28594	-240.07967	-105.01205	98.84195	386.63785	246.37195	24.25586	382.03326	85.39934	1073.49780	-554.96875	-8.38410	491.57867	-405.59528	149.44093	491.80310	-407.44693	9.67759	599.36902	532.42505	160.74646	590.34113	530.68518	
4380	43.790	-132.07651	5.37375	-229.60878	261.70782	48.42246	-240.23181	-104.40646	89.05965	387.11316	246.30418	23.88622	382.30914	85.66474	1074.49890	-553.79919	-8.53673	492.10751	-405.34070	149.51443	492.03818	-407.45236	11.06825	598.49677	532.91077	161.74922	589.13403	530.99182	
4381	43.800	-132.37367	5.92081	-229.33478	261.36777	38.70927	-240.25691	-103.73077	78.92997	387.30865	245.99861	23.18628	382.40884	86.11246	1075.52588	-552.35651	-8.76763	492.76871	-405.05835	150.24649	492.13547	-407.47202	11.85867	597.85437	533.37219	162.73277	588.17737	531.30933	
4382	43.810	-132.79842	6.38909	-229.08910	260.88626	29.42613	-240.63739	-102.93468	69.85839	386.97900	245.86615	22.15882	382.81848	86.24040	1076.47144	-551.33228	-8.87958	493.26492	-404.87717	150.26941	492.34433	-407.34451	12.58873	597.59467	534.22339	163.74513	587.17578	531.42334	
4383	43.820	-133.14372	6.79461	-228.85622	260.57208	21.08137	-241.01196	-102.97121	61.80222	386.61807	245.24550	21.65412	382.85803	87.18205	1077.37769	-550.19495	-9.08484	493.80798	-404.70059	150.09831	492.67703	-407.39972	13.50714	596.46191	534.36053	165.07954	586.02289	532.05487	
4384	43.830	-133.32913	7.26759	-228.73845	261.00424	13.79078	-241.50677	-101.74545	53.17813	386.55951	244.80060	21.22494	383.10031	88.05511	1078.19446	-549.45648	-9.17105	494.49261	-404.55927	149.96414	492.95972	-407.43701	14.29030	595.45789	534.59393	165.47250	584.80322	531.58014	
4385	43.840	-133.63545	7.68547	-228.33882	260.91418	10.99990	-243.29846	-101.35647	46.73232	386.61520	244.35399	20.28879	383.30737	88.99993	1079.00696	-548.83826	-9.33638	495.18451	-404.52310	149.70703	493.55661	-407.64087	15.62524	594.48785	534.70862	166.65054	583.64117	531.68738	
4386	43.850	-133.94418	8.29973	-227.96619	260.84714	8.93829	-242.68892	-100.68733	40.18447	385.37756	244.29155	19.65447	383.60873	89.62539	1079.87366	-548.36041	-9.64136	495.94830	-404.60223	149.62791	494.24420	-407.75012	16.43940	593.28882	534.76947	167.42294	582.25708	531.58960	
4387	43.860	-134.19423	8.77939	-227.85046	261.58224	9.82866	-243.97971	-100.34462	33.60092	384.48834	244.27226	19.30812	383.87900	90.49088	1081.04773	-547.65515	-9.44803	496.88345	-404.45203	149.53210	495.22815	-407.90274	17.25628	592.09869	534.88593	168.26767	581.11493	531.71313	
4388	43.870	-134.10165	9.30733	-227.92284	260.85965	9.48371	-242.80611	-99.91556	26.57904	383.64063	244.01672	19.25203	383.73706	90.76801	1082.67322	-547.02020	-9.66214	498.08548	-404.60205	149.50534	496.54642	-407.95282	18.12356	591.43829	534.95630	168.98120	580.55981	531.68787	
4389	43.880	-134.05156	10.56749	-227.60535	260.75662	9.42034	-243.30042	-100.95527	20.45342	381.86676	243.78195	18.87999	383.93634	90.71160	1084.50952	-546.16327	-9.73314	499.28836	-404.16534	149.23759	497.38943	-407.98215	18.73764	591.52777	535.29822	169.73355	579.93555	531.53394	
4390	43.890	-134.14711	11.27487	-227.39124	260.74289	9.85835	-242.42230	-103.66396	21.84109	382.85257	243.69800	18.34321	384.03854	90.12833	1086.37610	-545.01343	-10.07978	500.23453	-403.87900	149.06297	497.32495	-407.60437	20.22505	593.38470	535.50848	171.46080	581.37817	532.19800	
4391	43.900	-134.23409	13.00292	-226.64729	259.78583	10.15979	-242.64714	-101.92535	21.10714	384.03723	242.19029	19.67444	384.43680	90.05740	1087.96191	-545.17798	-10.47589	500.72595	-403.56219	148.47206	497.79819	-407.30124	20.86764	594.99561	536.00635	171.32695	582.59515	532.17938	
4392	43.910	-132.41833	16.42406	-224.56726	259.44257	11.13006	-242.46564	-101.82486	21.22619	384.27921	240.98227	22.76728	387.46857	90.84629	1088.64783	-546.49139	-11.15116	501.98737	-402.91071	147.76157	499.20328	-406.96658	21.44555	595.31567	536.55371	171.81738	582.62030	532.21130	
4393	43.920	-127.62567	22.31320	-222.18405	259.49500	11.65730	-241.78290	-101.82056	20.29583	384.26648	241.61024	30.19876	388.38287	91.97149	1088.99731	-547.30328	-11.69412	503.57578	-402.66858	146.33032	500.74023	-406.45996	22.10251	594.71796	537.14508	172.60283	582.13879	532.86578	
4394	43.930	-125.45451	32.26402	-222.09270	259.19110	11.83937	-241.80791	-103.28536	20.21686	384.59860	241.64630	36.99261	389.23444	93.35269	1089.37415	-547.41211	-12.04470	504.47089	-402.42795	146.22191	500.97244	-406.62662	22.66749	594.16724	537.34167	173.45639	581.26093	533.11780	
4395	43.940	-124.51026	41.56416	-222.54765	258.60358	11.83100	-241.59856	-102.93273	19.23633	384.76193	242.82776	47.90347	387.14285	94.19857	1090.64185	-546.40979	-12.27637	504.73132	-402.25034	145.88956	501.18314	-406.49878	22.55131	593.68701	537.56372	174.23090	580.75861	533.72882	
4396	43.950	-126.35741	52.25446	-223.55864	258.58585	12.00414	-241.22278	-103.35983	18.65969	385.01459	243.85892	58.19295	385.83472	95.58243	1092.32813	-545.26758	-12.30956	504.70990	-402.11407	145.73853	501.34970	-406.41824	22.57488	592.63794	537.77673	174.18365	579.72314	534.08649	
